<svg width="182" height="329" viewBox="0 0 182 329" fill="none" xmlns="http://www.w3.org/2000/svg">
<g clip-path="url(#clip0_53_9716)">
<path d="M147.169 99.5167C147.52 91.3273 141.1 84.3458 132.915 83.9834C124.718 83.6332 117.73 90.0349 117.368 98.2242L115.191 148.629C114.841 156.818 121.261 163.8 129.445 164.162C137.642 164.512 144.63 158.098 144.993 149.921L147.169 99.5167Z" fill="#1A1A1A"/>
<path d="M160.613 98.9122C158.413 106.812 150.143 111.462 142.249 109.264L75.0052 90.5537C67.0985 88.3554 62.4439 80.0936 64.6443 72.2062C66.8446 64.3067 75.114 59.6564 83.0087 61.8547L150.252 80.5646C158.159 82.763 162.814 91.0248 160.613 98.9122Z" fill="#1A1A1A"/>
<path d="M138.151 86.2776C141.609 73.909 134.307 60.9606 121.927 57.5182L89.6952 48.5316C77.3152 45.0771 64.3549 52.3726 60.9093 64.7412C57.4516 77.1098 64.7539 90.0582 77.1339 93.5006L109.365 102.487C121.745 105.942 134.706 98.6462 138.151 86.2776Z" fill="#362F48"/>
</g>
<defs>
<clipPath id="clip0_53_9716">
<rect width="182" height="329" fill="white"/>
</clipPath>
</defs>
</svg>